<?xml version="1.0"?>
<svg xmlns="http://www.w3.org/2000/svg" width="50" height="50" viewBox="0 0 50 50">
    <path d="M 35.21875 0.21875 L 19.21875 3.125 C 18.78375 3.204 18.45525 3.562 18.40625 4 L 14.9375 34.53125 L 28.1875 32.25 C 28.3245 32.227 28.45275 32.21875 28.59375 32.21875 C 28.67775 32.21875 28.75875 32.21075 28.84375 32.21875 L 28.875 32.21875 C 29.021 32.21875 29.1565 32.25025 29.3125 32.28125 L 33 24 L 32.09375 32.9375 L 46.59375 36.34375 L 49.6875 7.59375 C 49.7335 7.17075 49.51 6.77575 49.125 6.59375 L 35.8125 0.28125 C 35.6245 0.19125 35.42475 0.17975 35.21875 0.21875 z M 25.25 9.40625 L 30.03125 9.96875 L 29.46875 14.71875 L 24.6875 14.15625 L 25.25 9.40625 z M 37.90625 10.875 L 42.6875 11.4375 L 42.125 16.21875 L 37.34375 15.65625 L 37.90625 10.875 z M 9.6875 10.90625 C 9.57275 10.9205 9.44825 10.947 9.34375 11 L 0.53125 15.5 C 0.15925 15.69 -0.048 16.085 0 16.5 L 2.375 36.71875 L 6.8125 35.9375 L 6.4375 32.5625 L 9.90625 32.15625 L 10.28125 35.34375 L 12.875 34.90625 L 12.9375 34.3125 L 14 25.03125 L 14 25 L 14.375 21.8125 L 13.59375 21.90625 L 13.1875 18.5 L 14.78125 18.3125 L 15.46875 12.15625 L 10.03125 10.9375 C 9.91675 10.9115 9.80225 10.892 9.6875 10.90625 z M 24.28125 17.3125 L 29.0625 17.875 L 28.5 22.625 L 23.71875 22.0625 L 24.28125 17.3125 z M 36.96875 18.78125 L 41.71875 19.34375 L 41.15625 24.125 L 36.40625 23.5625 L 36.96875 18.78125 z M 8.28125 19.03125 L 8.6875 22.5 L 5.21875 22.90625 L 4.8125 19.4375 L 8.28125 19.03125 z M 23.34375 25.125 L 28.125 25.6875 L 27.5625 30.4375 L 22.78125 29.875 L 23.34375 25.125 z M 9.125 25.5625 L 9.53125 29.03125 L 6.0625 29.4375 L 5.65625 25.96875 L 9.125 25.5625 z M 36 26.6875 L 40.78125 27.25 L 40.21875 32.03125 L 35.4375 31.46875 L 36 26.6875 z M 28.53125 34.21875 L 0.84375 39 C 0.36375 39.084 0 39.514 0 40 L 0 49 C 0 49.553 0.448 50 1 50 L 17.75 50 L 27 42 L 24 40 L 29 36 L 29 34.25 L 28.9375 34.21875 C 28.8845 34.20675 28.83225 34.22175 28.78125 34.21875 C 28.69925 34.21175 28.61525 34.20475 28.53125 34.21875 z M 34.5625 35.5625 L 31 40 L 35 41 L 28.21875 50 L 29 50 L 34.59375 50 L 49 50 C 49.553 50 50 49.553 50 49 L 50 40 C 50 39.536 49.67075 39.13925 49.21875 39.03125 L 34.5625 35.5625 z"/>
</svg>
